<svg width="61" height="48" viewBox="0 0 61 48" fill="none" xmlns="http://www.w3.org/2000/svg">
<path d="M47.3633 1.08199C45.8192 0.96162 44.2787 0.797986 42.7327 0.732157C40.25 0.62683 37.8049 0.920241 35.3485 1.42431C31.9028 2.13338 28.3894 2.15595 24.8797 1.9453C23.4935 1.86254 22.1187 1.61051 20.7419 1.49578C16.9106 1.17604 10.5703 3.31832 9.66183 9.25049C9.35525 11.263 9.52829 13.3714 9.66183 15.4253C9.91762 19.5143 11.3546 23.3418 12.4605 27.2426C12.6556 27.9576 12.8001 28.6854 12.8931 29.4206C12.9683 29.9717 13.1489 30.1598 13.7433 30.0639C19.7521 29.1234 25.8344 28.7344 31.9141 28.9015C34.8802 28.9692 37.8406 29.225 40.8048 29.3981C40.9466 29.404 41.0809 29.4631 41.181 29.5636C39.334 29.7065 37.4876 29.8501 35.6419 29.9943C30.2288 30.4081 24.8214 30.8915 19.4855 31.9184C17.6479 32.2701 15.846 32.8137 14.031 33.267C13.4668 33.4062 13.2787 33.7372 13.2787 34.3259C13.2787 36.1353 13.2373 37.9446 13.1677 39.7502C13.147 40.275 13.3031 40.3822 13.7978 40.3371C14.9263 40.2336 16.0661 40.1885 17.2021 40.1245C17.4222 40.1132 17.6441 40.1245 17.8661 40.1245L17.9093 40.3126C17.7664 40.3784 17.6272 40.4518 17.4805 40.5007C16.2128 41.0029 14.9357 41.4844 13.6755 42.0054C13.194 42.2047 12.9834 42.611 12.9232 43.1508C12.7577 44.4354 12.532 45.7144 12.3195 46.9915C12.305 47.2229 12.2291 47.4463 12.0994 47.6385C11.9156 47.8346 11.6698 47.9615 11.4035 47.9977C11.2587 47.9977 10.9878 47.7325 10.9596 47.5557C10.8538 46.9211 10.8003 46.2788 10.7997 45.6354C10.8392 41.8549 10.9878 38.0744 10.9295 34.2958C10.8787 31.4745 10.5007 28.6533 9.55462 25.9524C8.82485 23.8966 7.41422 22.3825 5.7177 21.1261C4.96536 20.5619 4.16976 20.7293 3.42495 21.3236C1.9372 22.5067 1.50461 24.1411 1.50461 25.9054C1.50461 28.4877 2.09895 30.9836 3.01869 33.3704C4.18105 36.3967 5.48823 39.3665 6.72207 42.3665C6.87458 42.7288 6.98501 43.1075 7.05122 43.495C7.0563 43.5914 7.04005 43.6877 7.00364 43.7771C6.96723 43.8665 6.91155 43.9468 6.84056 44.0122C6.7578 44.0799 6.46439 44.0122 6.35718 43.8994C5.87702 43.4642 5.43118 42.9926 5.02367 42.4887C3.07323 39.912 1.95601 36.9421 1.12844 33.8557C0.259489 30.6865 -0.240815 27.4495 0.116545 24.1581C0.249315 22.9198 0.586816 21.7121 1.11527 20.5845C1.94661 18.8484 3.5378 18.2823 5.39983 18.8428C6.06001 19.0309 6.68257 19.3619 7.32394 19.6252C7.46312 19.6835 7.60606 19.7287 7.81672 19.8133C7.62863 18.5719 7.41422 17.4171 7.30513 16.2529C6.97222 12.6793 7.06062 9.15081 8.69883 5.84241C10.132 2.9365 12.5207 1.24751 15.6109 0.491409C18.4322 -0.200741 21.2685 0.0776236 24.118 0.363512C27.8149 0.7504 31.543 0.730847 35.2357 0.305206C39.24 -0.174409 43.1954 -0.17629 47.1 0.94093C47.1865 0.965381 47.2712 0.995475 47.3558 1.02369L47.3633 1.08199Z" fill="#231F20"/>
<path d="M57.1249 40.3012C57.5011 38.9639 57.8772 37.732 58.1988 36.4869C58.9813 33.4305 59.7656 30.3722 59.9367 27.2049C60.0496 25.0833 59.1976 23.4094 57.4183 22.2545C56.1863 21.4533 54.7155 21.6903 53.6792 22.7586C52.2911 24.1974 51.7983 26.0407 51.4222 27.9102C50.4009 32.9227 50.3576 38.0028 50.4818 43.0886C50.5137 44.3168 50.5814 45.545 50.6698 46.7694C50.7056 47.2208 50.5175 47.4352 50.13 47.5011C49.6079 47.6094 49.0774 47.6723 48.5445 47.6891C44.1847 47.6703 39.823 47.6891 35.467 47.5763C30.8439 47.4484 26.2339 47.5067 21.6334 47.992C21.5363 48.0066 21.4371 48.001 21.3423 47.9754C21.2474 47.9498 21.1589 47.9049 21.0823 47.8434C21.9325 47.6816 22.7751 47.5349 23.629 47.3525C29.9091 46.0001 36.2852 46.4478 42.6255 46.3067C44.1038 46.2747 45.5784 46.0453 47.0586 45.9306C47.5063 45.8948 47.6229 45.686 47.636 45.2591C47.6586 43.5663 47.6755 41.8736 47.779 40.1808C47.8204 39.5075 47.5646 39.3156 46.9815 39.2893C45.7063 39.2329 44.4311 39.0843 43.1578 39.1012C38.0795 39.1934 33.0012 39.3363 27.9229 39.4548C27.1405 39.4718 26.3562 39.4548 25.6133 39.4548C26.249 38.9451 31.3216 37.9934 36.5466 37.7339C40.2857 37.5458 44.0418 37.7339 47.8561 37.7639C47.9351 36.9006 48.0047 35.9113 48.1232 34.9276C48.537 31.4688 49.0486 28.0268 50.4667 24.8012C51.2755 22.9636 52.3475 21.3348 54.2115 20.3869C56.7713 19.091 59.0697 19.9486 60.1568 22.6062C60.8414 24.2764 60.9806 26.0275 60.9261 27.7992C60.7944 32.2098 59.3198 36.2367 57.3525 40.115C57.328 40.1714 57.2603 40.1978 57.1249 40.3012Z" fill="#231F20"/>
<path d="M5.87386 40.3222C5.87386 40.3222 11.7835 28.1456 3.48895 21.7583C3.48895 21.7583 -2.54291 22.5332 5.87386 40.3222Z" fill="#ADAAA7"/>
<path d="M28.9969 7.5767C28.9969 7.5767 35.6757 5.42689 35.5159 1.36992C35.5159 1.36992 23.3525 2.726 21.3644 1.36992C21.3644 1.36992 11.9038 0.335454 9.51509 8.62057C9.51509 8.62057 8.48251 15.3126 10.1527 20.2517C10.1527 20.2517 12.2216 28.8566 12.6956 30.2202C12.6956 30.2202 30.3473 28.6271 32.3354 29.0258C32.3354 29.0258 36.9453 24.9613 30.6652 20.8987C30.6652 20.8987 24.1462 16.7609 23.8264 16.1195C23.5067 15.4781 21.8403 12.6926 26.9279 8.86884" fill="#ADAAA7"/>
<path d="M12.5094 45.9703L12.9044 42.5077C12.9044 42.5077 18.735 39.1221 26.2226 39.4344C26.2226 39.4344 36.9434 38.5259 36.4694 39.4137C35.9955 40.3014 34.5773 40.1434 34.5773 40.1434C34.5773 40.1434 20.6271 44.2418 18.893 44.6368C17.1588 45.0318 12.5884 45.4982 12.5094 45.9703Z" fill="#ADAAA7"/>
<path d="M25.7675 46.9951C25.7675 46.9951 33.1028 41.5557 47.8354 41.7927V46.049L25.7675 46.9951Z" fill="#ADAAA7"/>
<path d="M50.6547 46.034C50.6547 46.034 49.9457 29.7196 51.3638 27.7485C51.3638 27.7485 52.703 21.9179 54.9111 21.9179C54.9111 21.9179 57.1963 20.7348 57.1173 24.9122C57.1173 24.9122 57.5123 30.5885 56.1769 33.8988C56.1769 33.8988 55.7387 37.9163 53.8296 41.0686C53.824 41.0686 52.2309 45.718 50.6547 46.034Z" fill="#ADAAA7"/>
</svg>
