<svg width="40" height="38" viewBox="0 0 40 38" fill="none" xmlns="http://www.w3.org/2000/svg">
<path d="M36.8986 19.7348V1.51992C36.8986 0.870092 36.3718 0.343262 35.722 0.343262H4.19674C3.54691 0.343262 3.02008 0.870092 3.02008 1.51992V21.1868C2.45246 21.2695 1.89755 21.4899 1.40664 21.8543C-0.140899 22.9517 -0.506918 25.4074 0.789368 26.922L6.08928 33.3471C9.36996 37.1867 12.855 37.6571 18.0359 37.6571C22.4819 37.6571 24.4696 37.6767 28.3443 36.7938L32.1173 35.8914C32.7291 36.7457 33.7003 37.2992 34.7922 37.2992H36.6508C38.4975 37.2992 40 35.7164 40 33.7709V23.2524C40.0001 21.3948 38.63 19.8689 36.8986 19.7348ZM31.6098 22.1552L30.042 21.359C27.4642 20.0578 24.4839 20.0096 21.8655 21.227C21.1511 21.508 19.5929 22.4507 18.7847 22.4192H13.3445C11.54 22.4192 10.0718 23.8873 10.0718 25.6919V26.55C10.0617 26.5393 10.0511 26.5292 10.0411 26.5184L6.15619 22.3015C5.9211 22.0463 5.65697 21.8328 5.37348 21.6614V9.98748H15.0027V14.3008C15.0027 14.9506 15.5295 15.4775 16.1794 15.4775H23.6042C24.254 15.4775 24.7808 14.9506 24.7808 14.3008V9.98748H34.5454V19.7347C33.1706 19.8409 32.0242 20.8244 31.6098 22.1552ZM17.356 9.98748H22.4274V13.1241H17.356V9.98748ZM34.5453 7.63416H24.7808V2.69658H34.5454L34.5453 7.63416ZM22.4275 2.69658V7.63424H17.356V2.69658H22.4275ZM15.0026 2.69658V7.63424H5.3734V2.69658H15.0026ZM27.7982 34.5047C24.2188 35.3245 22.0631 35.2913 18.0781 35.2913C13.2146 35.2913 10.8646 35.2127 7.90479 31.8495L2.60488 25.4244C1.683 24.224 3.35276 22.8069 4.4254 23.8958L8.31034 28.1128C9.3371 29.1962 10.6291 29.7925 12.2216 29.8275H22.9926C23.6425 29.8275 24.1693 29.3007 24.1693 28.6509C24.1693 28.001 23.6425 27.4742 22.9926 27.4742H12.425V25.6917C12.425 25.1848 12.8374 24.7724 13.3444 24.7724H18.7847C20.0103 24.8601 21.7793 23.8368 22.8575 23.3608C24.8186 22.449 27.0508 22.4851 28.9789 23.4583L31.4432 24.7099V33.6328L27.7982 34.5047ZM37.6467 33.7708C37.6467 34.4187 37.2 34.9458 36.6509 34.9458H34.7922C34.2431 34.9458 33.7965 34.4187 33.7965 33.7708V23.2524C33.7965 22.6046 34.2432 22.0774 34.7922 22.0774H36.6509C37.2 22.0774 37.6467 22.6045 37.6467 23.2524V33.7708Z" fill="#3A3A3A"/>
</svg>
