<svg width="41" height="41" viewBox="0 0 41 41" fill="none" xmlns="http://www.w3.org/2000/svg">
<g clip-path="url(#clip0_216_77)">
<path d="M38.3573 14.6742C37.8295 13.0398 38.0545 10.5864 36.6827 8.69214C35.3 6.78292 32.8952 6.24026 31.5373 5.24714C30.1938 4.26448 28.9438 2.12612 26.6837 1.38862C24.4873 0.671901 22.2414 1.64448 20.5 1.64448C18.7588 1.64448 16.513 0.671667 14.3163 1.38854C12.0566 2.12589 10.8056 4.26471 9.46289 5.2469C8.10648 6.23885 5.69992 6.783 4.3175 8.6919C2.9468 10.5846 3.16953 13.0436 2.64266 14.6741C2.14125 16.2259 0.5 18.0883 0.5 20.5002C0.5 22.9135 2.13938 24.7688 2.64266 26.3262C3.17047 27.9606 2.94547 30.4139 4.31734 32.3082C5.69992 34.2175 8.10461 34.7601 9.46266 35.7533C10.806 36.7358 12.0562 38.8743 14.3163 39.6117C16.5112 40.328 18.7606 39.3559 20.5 39.3559C22.237 39.3559 24.4916 40.327 26.6837 39.6118C28.9434 38.8745 30.1937 36.7361 31.5371 35.7535C32.8935 34.7615 35.3001 34.2174 36.6825 32.3085C38.0533 30.4157 37.8304 27.9569 38.3573 26.3263C38.8588 24.7744 40.5 22.912 40.5 20.5002C40.5 18.087 38.861 16.2323 38.3573 14.6742V14.6742ZM35.3838 25.3653C34.7686 27.2696 34.9298 29.4008 34.1516 30.4753C33.363 31.5642 31.2913 32.0615 29.6926 33.2309C28.1114 34.3872 27.0032 36.2203 25.7143 36.6408C24.4949 37.0388 22.5077 36.2307 20.5001 36.2307C18.4777 36.2307 16.511 37.0405 15.2858 36.6408C13.997 36.2203 12.8904 34.3885 11.3075 33.2308C9.71828 32.0685 7.63469 31.561 6.84836 30.4752C6.07273 29.4042 6.22781 27.2583 5.61633 25.3654C5.01695 23.5108 3.625 21.9049 3.625 20.5002C3.625 19.094 5.0157 17.4937 5.61617 15.635C6.23141 13.7308 6.07023 11.5995 6.84836 10.525C7.63648 9.4369 9.70984 8.93792 11.3075 7.76948C12.8937 6.6094 13.9949 4.78073 15.2856 4.35956C16.504 3.96206 18.4977 4.76964 20.4999 4.76964C22.5259 4.76964 24.4877 3.95932 25.7142 4.35956C27.0028 4.78003 28.1104 6.61253 29.6926 7.76956C31.2816 8.93182 33.3653 9.4394 34.1516 10.5251C34.9274 11.5963 34.7715 13.74 35.3837 15.6349V15.6349C35.983 17.4896 37.375 19.0954 37.375 20.5002C37.375 21.9064 35.9843 23.5067 35.3838 25.3653V25.3653ZM27.6987 15.4849C28.3089 16.0952 28.3089 17.0845 27.6987 17.6946L19.8779 25.5154C19.2677 26.1257 18.2783 26.1256 17.6681 25.5154L13.3014 21.1487C12.6912 20.5385 12.6911 19.5492 13.3013 18.939C13.9116 18.3289 14.901 18.3288 15.511 18.939L18.773 22.2009L25.4888 15.485C26.0991 14.8748 27.0884 14.8748 27.6987 15.4849V15.4849Z" fill="#3A3A3A"/>
</g>
<defs>
<clipPath id="clip0_216_77">
<rect width="40" height="40" fill="white" transform="translate(0.5 0.5)"/>
</clipPath>
</defs>
</svg>
