<svg width="106" height="48" viewBox="0 0 106 48" fill="none" xmlns="http://www.w3.org/2000/svg">
<g clip-path="url(#clip0_208_7)">
<path d="M37.3082 5.94744C36.0919 5.85262 34.8785 5.72373 33.6606 5.67188C31.705 5.58891 29.779 5.82003 27.8441 6.21708C25.1299 6.77563 22.3624 6.7934 19.5978 6.62747C18.5059 6.56228 17.4229 6.36376 16.3384 6.27338C13.3205 6.02152 8.32623 7.709 7.61064 12.3818C7.36915 13.967 7.50545 15.6279 7.61064 17.2457C7.81213 20.4666 8.94403 23.4815 9.81518 26.5542C9.96881 27.1174 10.0827 27.6907 10.1559 28.2699C10.2152 28.704 10.3574 28.8521 10.8256 28.7766C15.5588 28.0358 20.3498 27.7293 25.1388 27.861C27.4752 27.9143 29.8071 28.1158 32.1421 28.2521C32.2537 28.2568 32.3595 28.3033 32.4384 28.3825C30.9835 28.4951 29.5291 28.6082 28.0752 28.7217C23.8113 29.0477 19.5519 29.4284 15.3487 30.2374C13.9013 30.5144 12.482 30.9426 11.0523 31.2996C10.6078 31.4093 10.4597 31.67 10.4597 32.1337C10.4597 33.559 10.4271 34.9842 10.3722 36.4065C10.3559 36.8199 10.4789 36.9043 10.8686 36.8687C11.7575 36.7873 12.6553 36.7517 13.5502 36.7013C13.7235 36.6924 13.8983 36.7013 14.0731 36.7013L14.1072 36.8495C13.9946 36.9013 13.885 36.9591 13.7694 36.9976C12.7709 37.3932 11.7649 37.7725 10.7723 38.1829C10.393 38.3399 10.227 38.6599 10.1796 39.0851C10.0493 40.097 9.87148 41.1045 9.70406 42.1105C9.69271 42.2927 9.63287 42.4687 9.53072 42.6201C9.38594 42.7746 9.19236 42.8745 8.98255 42.9031C8.86847 42.9031 8.65513 42.6942 8.63291 42.5549C8.54956 42.055 8.50744 41.5491 8.50698 41.0423C8.53809 38.0644 8.65513 35.0865 8.6092 32.11C8.5692 29.8877 8.27141 27.6654 7.52619 25.5379C6.95135 23.9186 5.8402 22.7259 4.50384 21.7363C3.91122 21.2918 3.28453 21.4237 2.69784 21.8918C1.52594 22.8237 1.18518 24.1112 1.18518 25.5009C1.18518 27.535 1.65335 29.501 2.37783 31.3811C3.29342 33.7649 4.32309 36.1043 5.29499 38.4673C5.41512 38.7528 5.50211 39.051 5.55426 39.3563C5.55826 39.4322 5.54546 39.5081 5.51678 39.5785C5.4881 39.6489 5.44424 39.7122 5.38832 39.7637C5.32314 39.817 5.09202 39.7637 5.00757 39.6748C4.62934 39.332 4.27816 38.9605 3.95715 38.5636C2.42079 36.5339 1.54075 34.1946 0.888874 31.7633C0.2044 29.2669 -0.18969 26.7172 0.091803 24.1245C0.196386 23.1491 0.462236 22.1979 0.878503 21.3096C1.53335 19.9421 2.78673 19.4962 4.25346 19.9377C4.77348 20.0858 5.26388 20.3466 5.76908 20.554C5.87872 20.5999 5.99131 20.6355 6.15725 20.7021C6.00909 19.7243 5.8402 18.8147 5.75427 17.8976C5.49203 15.0826 5.56167 12.3033 6.85209 9.69723C7.98103 7.40825 9.86259 6.07782 12.2968 5.48224C14.5191 4.93703 16.7533 5.1563 18.9978 5.38149C21.9098 5.68625 24.8465 5.67084 27.7552 5.33556C30.9094 4.95777 34.0251 4.95629 37.1008 5.83633C37.1689 5.85559 37.2356 5.87929 37.3023 5.90151L37.3082 5.94744Z" fill="#231F20"/>
<path d="M44.9974 36.8405C45.2937 35.7872 45.59 34.8168 45.8433 33.836C46.4597 31.4285 47.0775 29.0195 47.2123 26.5246C47.3012 24.8534 46.63 23.5348 45.2285 22.6251C44.2581 21.994 43.0995 22.1807 42.2832 23.0222C41.1898 24.1556 40.8017 25.6075 40.5053 27.0801C39.7009 31.0285 39.6668 35.0301 39.7646 39.0362C39.7898 40.0036 39.8431 40.9711 39.9127 41.9356C39.9409 42.2911 39.7927 42.46 39.4875 42.5119C39.0763 42.5973 38.6584 42.6468 38.2386 42.6601C34.8044 42.6452 31.3687 42.66 27.9374 42.5712C24.2958 42.4704 20.6645 42.5163 17.0407 42.8986C16.9641 42.9101 16.8861 42.9057 16.8114 42.8855C16.7366 42.8654 16.6669 42.83 16.6066 42.7815C17.2762 42.6541 17.94 42.5386 18.6126 42.3949C23.5595 41.3296 28.5819 41.6822 33.5762 41.5711C34.7407 41.5459 35.9022 41.3652 37.0682 41.2748C37.4208 41.2467 37.5126 41.0822 37.523 40.7459C37.5408 39.4125 37.5541 38.0791 37.6356 36.7457C37.6682 36.2153 37.4667 36.0642 37.0074 36.0435C36.0029 35.999 34.9984 35.882 33.9954 35.8953C29.9953 35.9679 25.9951 36.0805 21.9949 36.1739C21.3786 36.1872 20.7608 36.1739 20.1756 36.1739C20.6764 35.7724 24.6721 35.0227 28.7878 34.8182C31.7331 34.6701 34.6918 34.8182 37.6963 34.8419C37.7586 34.1619 37.8134 33.3826 37.9067 32.6078C38.2327 29.8832 38.6356 27.172 39.7527 24.6311C40.3898 23.1837 41.2343 21.9007 42.7025 21.154C44.7189 20.1332 46.5293 20.8088 47.3856 22.9022C47.9249 24.2178 48.0345 25.5971 47.9916 26.9927C47.8879 30.4669 46.7263 33.6389 45.1766 36.6939C45.1574 36.7383 45.1041 36.7591 44.9974 36.8405Z" fill="#231F20"/>
<path d="M4.62685 36.8569C4.62685 36.8569 9.28187 27.2654 2.74826 22.2341C2.74826 22.2341 -2.00306 22.8445 4.62685 36.8569Z" fill="#ADAAA7"/>
<path d="M22.8409 11.0632C22.8409 11.0632 28.1019 9.36977 27.9759 6.17408C27.9759 6.17408 18.3948 7.24227 16.8288 6.17408C16.8288 6.17408 9.37664 5.35923 7.49508 11.8854C7.49508 11.8854 6.68171 17.1568 7.99732 21.0473C7.99732 21.0473 9.62702 27.8254 10.0004 28.8995C10.0004 28.8995 23.9047 27.6446 25.4706 27.9587C25.4706 27.9587 29.1019 24.7571 24.155 21.5569C24.155 21.5569 19.02 18.2975 18.7681 17.7923C18.5163 17.2871 17.2036 15.093 21.2112 12.081" fill="#ADAAA7"/>
<path d="M9.85364 41.3059L10.1648 38.5784C10.1648 38.5784 14.7575 35.9116 20.6556 36.1576C20.6556 36.1576 29.1004 35.442 28.727 36.1413C28.3537 36.8406 27.2366 36.7161 27.2366 36.7161C27.2366 36.7161 16.248 39.9444 14.882 40.2555C13.516 40.5666 9.91586 40.9341 9.85364 41.3059Z" fill="#ADAAA7"/>
<path d="M20.2971 42.1133C20.2971 42.1133 26.0751 37.8287 37.6801 38.0154V41.3681L20.2971 42.1133Z" fill="#ADAAA7"/>
<path d="M39.9009 41.3563C39.9009 41.3563 39.3423 28.5054 40.4594 26.9528C40.4594 26.9528 41.5143 22.36 43.2536 22.36C43.2536 22.36 45.0537 21.4281 44.9914 24.7186C44.9914 24.7186 45.3026 29.1899 44.2507 31.7974C44.2507 31.7974 43.9055 34.962 42.4017 37.445C42.3973 37.445 41.1424 41.1074 39.9009 41.3563Z" fill="#ADAAA7"/>
</g>
<path d="M57.598 31V16.4545H66.7173V18.3438H59.7926V22.7756H66.2415V24.6577H59.7926V29.1108H66.8026V31H57.598ZM69.6488 31V16.4545H74.8335C75.9603 16.4545 76.8955 16.6487 77.6388 17.0369C78.387 17.4252 78.9457 17.9626 79.315 18.6491C79.6843 19.331 79.869 20.1193 79.869 21.0142C79.869 21.9044 79.6819 22.688 79.3079 23.3651C78.9386 24.0374 78.3799 24.5606 77.6317 24.9347C76.8884 25.3087 75.9532 25.4957 74.8263 25.4957H70.8988V23.6065H74.6275C75.3377 23.6065 75.9154 23.5047 76.3604 23.3011C76.8103 23.0975 77.1393 22.8016 77.3477 22.4134C77.556 22.0251 77.6602 21.5587 77.6602 21.0142C77.6602 20.465 77.5536 19.9891 77.3406 19.5866C77.1322 19.1842 76.8031 18.8764 76.3533 18.6634C75.9083 18.4455 75.3235 18.3366 74.5991 18.3366H71.8434V31H69.6488ZM76.8292 24.4375L80.4229 31H77.9229L74.4002 24.4375H76.8292ZM90.4727 20.2756C90.3969 19.6032 90.0844 19.0824 89.5352 18.7131C88.9859 18.339 88.2946 18.152 87.4613 18.152C86.8647 18.152 86.3486 18.2467 85.913 18.4361C85.4774 18.6207 85.1388 18.8764 84.8974 19.2031C84.6606 19.5251 84.5423 19.892 84.5423 20.304C84.5423 20.6496 84.6228 20.9479 84.7837 21.1989C84.9495 21.4498 85.1649 21.6605 85.43 21.831C85.6999 21.9967 85.9888 22.1364 86.2965 22.25C86.6043 22.3589 86.9002 22.4489 87.1843 22.5199L88.6048 22.8892C89.0688 23.0028 89.5446 23.1567 90.0323 23.3509C90.52 23.545 90.9722 23.8007 91.3888 24.1179C91.8055 24.4351 92.1417 24.8281 92.3974 25.2969C92.6578 25.7656 92.788 26.3267 92.788 26.9801C92.788 27.804 92.5749 28.5355 92.1488 29.1747C91.7274 29.8139 91.1142 30.3182 90.3093 30.6875C89.5091 31.0568 88.5408 31.2415 87.4045 31.2415C86.3155 31.2415 85.3732 31.0687 84.5778 30.723C83.7823 30.3774 83.1597 29.8873 82.7099 29.2528C82.2601 28.6136 82.0115 27.8561 81.9641 26.9801H84.1658C84.2085 27.5057 84.3789 27.9437 84.6772 28.294C84.9802 28.6397 85.3661 28.8977 85.8349 29.0682C86.3084 29.2339 86.8268 29.3168 87.3903 29.3168C88.0105 29.3168 88.5621 29.2197 89.0451 29.0256C89.5328 28.8267 89.9163 28.5521 90.1957 28.2017C90.475 27.8466 90.6147 27.4323 90.6147 26.9588C90.6147 26.5279 90.4916 26.1752 90.2454 25.9006C90.0039 25.6259 89.6748 25.3987 89.2582 25.2188C88.8462 25.0388 88.3799 24.8802 87.859 24.7429L86.1403 24.2741C84.9755 23.9569 84.0522 23.4905 83.3704 22.875C82.6933 22.2595 82.3548 21.4451 82.3548 20.4318C82.3548 19.5937 82.582 18.8622 83.0366 18.2372C83.4911 17.6122 84.1067 17.1269 84.8832 16.7812C85.6597 16.4309 86.5356 16.2557 87.511 16.2557C88.4959 16.2557 89.3647 16.4285 90.1175 16.7741C90.8751 17.1198 91.4717 17.5956 91.9073 18.2017C92.3429 18.803 92.5702 19.4943 92.5891 20.2756H90.4727ZM95.4105 31V16.4545H104.53V18.3438H97.6051V22.7756H104.054V24.6577H97.6051V29.1108H104.615V31H95.4105Z" fill="#3A3A3A"/>
<defs>
<clipPath id="clip0_208_7">
<rect width="48" height="48" fill="white"/>
</clipPath>
</defs>
</svg>
